HIERARCHY
ROOT Hips
{
	OFFSET 0.000000 0.000000 0.000000 
	CHANNELS 6 Xposition Yposition Zposition Yrotation Zrotation Xrotation 
	JOINT Lumbar
	{
		OFFSET 0.000000 0.000000 0.000000 
		CHANNELS 3 Zrotation Xrotation Yrotation
		JOINT Neck
		{
			OFFSET 0.000000 0.445665 0.000000 
			CHANNELS 3 Zrotation Xrotation Yrotation
			End Site
			{
				OFFSET 0.000000 0.227535 0.000000 
			}
		}
		JOINT RightShoulder
		{
			OFFSET 0.019635 0.377685 0.194865 
			CHANNELS 3 Zrotation Xrotation Yrotation
			JOINT RightElbow
			{
				OFFSET 0.000000 -0.243375 0.000000 
				CHANNELS 2 Zrotation Yrotation
				JOINT RightWrist
				{
					OFFSET 0.000000 -0.264825 0.000000 
					CHANNELS 2 Zrotation Xrotation
					End Site
					{
						OFFSET 0.006600 -0.176220 0.000990 
					}
				}
			}
		}
		JOINT LeftShoulder
		{
			OFFSET 0.019635 0.377685 -0.194865 
			CHANNELS 3 Zrotation Xrotation Yrotation
			JOINT LeftElbow
			{
				OFFSET 0.000000 -0.243375 0.000000 
				CHANNELS 2 Zrotation Yrotation
				JOINT LeftWrist
				{
					OFFSET 0.000000 -0.264825 0.000000 
					CHANNELS 2 Zrotation Xrotation
					End Site
					{
						OFFSET 0.006600 -0.176220 -0.000990 
					}
				}
			}
		}
	}
	JOINT RightHip
	{
		OFFSET 0.052140 -0.069960 0.075570 
		CHANNELS 3 Zrotation Xrotation Yrotation
		JOINT RightKnee
		{
			OFFSET 0.000000 -0.402270 0.000000 
			CHANNELS 1 Zrotation
			JOINT RightAnkle
			{
				OFFSET 0.000000 -0.404085 0.000000 
				CHANNELS 3 Zrotation Xrotation Yrotation
				End Site
				{
					OFFSET 0.204105 -0.089430 0.008415 
				}
			}
		}
	}
	JOINT LeftHip
	{
		OFFSET 0.052140 -0.069960 -0.075570 
		CHANNELS 3 Zrotation Xrotation Yrotation
		JOINT LeftKnee
		{
			OFFSET 0.000000 -0.402270 0.000000 
			CHANNELS 1 Zrotation
			JOINT LeftAnkle
			{
				OFFSET 0.000000 -0.404085 0.000000 
				CHANNELS 3 Zrotation Xrotation Yrotation
				End Site
				{
					OFFSET 0.204105 -0.089430 -0.008415 
				}
			}
		}
	}
}
MOTION
Frames: 19
Frame Time: 0.02
0.00028 -0.00015 -0.00062 51.11876 -20.0175 -8.27561 43.99133 -1.92773 -8.8159 -12.37321 6.9008 -1.22179 -20.1546 -5.32029 -6.50628 22.96888 97.51401 9.74112 1.81012 -23.77764 7.86009 -2.57289 30.56255 -107.3151 17.6302 -2.03269 26.24723 -3.30196 -9.19508 -20.20427 -6.13327 -3.18066 -3.76187 31.10627 3.10819 -4.25496 -24.34085 -6.52138 3.33129 3.85764
0.00043 -7e-05 -0.00048 51.20013 -20.07847 -8.2755 43.98728 -1.95338 -8.81857 -12.39178 6.87455 -1.22226 -20.36718 -5.37401 -6.30368 23.48834 97.5068 9.72402 1.81052 -23.75513 7.83104 -2.46265 30.53266 -107.20669 17.55005 -2.03607 26.29975 -3.2664 -9.06929 -20.19689 -6.14702 -3.20019 -3.77138 31.17978 3.30767 -3.37041 -24.34009 -6.49799 3.23027 3.80604
0.00057 1e-05 -0.00034 51.28133 -20.1393 -8.27537 43.98326 -1.97899 -8.82132 -12.41041 6.8483 -1.22274 -20.57958 -5.42777 -6.10124 24.00738 97.49951 9.70693 1.8109 -23.7328 7.80202 -2.35258 30.50288 -107.09842 17.46993 -2.03944 26.35212 -3.23104 -8.94444 -20.18953 -6.16071 -3.21962 -3.78083 31.25312 3.50644 -2.48905 -24.33933 -6.47468 3.12961 3.75462
0.00071 9e-05 -0.00021 51.36245 -20.20009 -8.27526 43.97921 -2.00456 -8.82397 -12.42893 6.82213 -1.22322 -20.79151 -5.48133 -5.89919 24.52525 97.49233 9.6899 1.8113 -23.71035 7.77305 -2.24266 30.47306 -106.99034 17.39002 -2.04281 26.40448 -3.19561 -8.81913 -20.18217 -6.17441 -3.23908 -3.79031 31.32641 3.70529 -1.60733 -24.33857 -6.45137 3.02892 3.70319
0.00086 0.00016 -7e-05 51.44373 -20.26101 -8.27517 43.97517 -2.03019 -8.82658 -12.4474 6.79595 -1.22369 -21.00363 -5.53484 -5.69714 25.04359 97.4852 9.67281 1.81171 -23.68775 7.74407 -2.13262 30.44319 -106.88213 17.31009 -2.04618 26.45698 -3.15994 -8.69268 -20.17478 -6.18819 -3.25864 -3.79983 31.39984 3.90489 -0.72217 -24.33781 -6.42796 2.92785 3.65156
0.001 0.00024 7e-05 51.52475 -20.32165 -8.27497 43.97119 -2.05576 -8.82964 -12.46636 6.76953 -1.22417 -21.2167 -5.58917 -5.49387 25.56436 97.47755 9.6557 1.81204 -23.66602 7.71496 -2.02246 30.41363 -106.77371 17.2295 -2.04954 26.50909 -3.12524 -8.57119 -20.1675 -6.2017 -3.27782 -3.80914 31.47299 4.10191 0.15123 -24.33707 -6.40487 2.82803 3.60057
0.00115 0.00032 0.00021 51.60615 -20.38277 -8.275 43.96702 -2.08137 -8.83164 -12.4842 6.74372 -1.22464 -21.42715 -5.6416 -5.29335 26.07831 97.47112 9.63878 1.81255 -23.64241 7.68617 -1.91273 30.38333 -106.66599 17.15055 -2.05293 26.56191 -3.08862 -8.43989 -20.16 -6.21572 -3.29774 -3.81888 31.5466 4.30386 1.04702 -24.33628 -6.38118 2.72586 3.54838
0.00129 0.0004 0.00034 51.68731 -20.4435 -8.27479 43.96314 -2.10703 -8.8349 -12.50331 6.7172 -1.22512 -21.64085 -5.69612 -5.09018 26.60102 97.46325 9.62147 1.81286 -23.62079 7.65703 -1.80249 30.35396 -106.55732 17.06971 -2.05629 26.61409 -3.05379 -8.31757 -20.15271 -6.22927 -3.31698 -3.82823 31.61983 4.50137 1.92274 -24.33553 -6.35804 2.62577 3.49725
0.00143 0.00047 0.00048 51.76778 -20.50358 -8.27441 43.95919 -2.13245 -8.83856 -12.52307 6.69037 -1.22562 -21.85537 -5.75193 -4.88402 27.12507 97.45486 9.6045 1.81304 -23.60059 7.62768 -1.69201 30.32474 -106.44862 16.98796 -2.05961 26.66548 -3.0211 -8.20651 -20.14567 -6.24224 -3.33539 -3.83708 31.69247 4.69308 2.7719 -24.33487 -6.33559 2.52851 3.44757
0.00158 0.00056 0.00061 51.85104 -20.56686 -8.27539 43.95435 -2.15833 -8.8365 -12.53636 6.66699 -1.226 -22.05573 -5.7965 -4.69579 27.61331 97.4532 9.58802 1.8143 -23.56921 7.60018 -1.58406 30.29167 -106.3435 16.91565 -2.06315 26.72139 -2.97594 -8.03152 -20.13717 -6.25852 -3.35856 -3.84873 31.76814 4.91706 3.7678 -24.33382 -6.30919 2.41584 3.39
0.00172 0.00062 0.00076 51.92916 -20.62372 -8.27325 43.95222 -2.1838 -8.84869 -12.56504 6.63526 -1.22664 -22.29194 -5.86719 -4.46935 28.19486 97.43494 9.56897 1.81309 -23.56333 7.56837 -1.47007 30.26864 -106.22868 16.82079 -2.06624 26.76779 -2.95718 -7.99083 -20.13173 -6.26787 -3.3717 -3.8545 31.83764 5.07364 4.45799 -24.33352 -6.2911 2.33512 3.3488
0.0018 0.00064 0.00094 51.9871 -20.65994 -8.2645 43.95051 -2.20369 -8.88263 -12.622 6.58911 -1.22802 -22.57776 -5.99124 -4.13986 28.88954 97.39152 9.5562 1.80659 -23.61235 7.52796 -1.34507 30.25746 -106.10437 16.68525 -2.06789 26.78758 -3.01074 -8.32695 -20.13506 -6.25764 -3.35699 -3.8437 31.88822 5.03771 4.26863 -24.33571 -6.29623 2.34745 3.35523
0.00187 0.00064 0.00113 52.04104 -20.69017 -8.25228 43.9527 -2.22402 -8.93416 -12.69699 6.533 -1.22968 -22.90794 -6.14528 -3.77157 29.70411 97.32847 9.53899 1.79735 -23.68972 7.48267 -1.21304 30.25901 -105.96707 16.52341 -2.06911 26.79787 -3.09074 -8.79609 -20.1414 -6.24056 -3.33231 -3.82709 31.9329 4.93545 3.77947 -24.33858 -6.30963 2.3909 3.3776
0.00195 0.00066 0.00131 52.10075 -20.72528 -8.24039 43.95786 -2.24699 -8.98893 -12.77285 6.47587 -1.2312 -23.25059 -6.29708 -3.42 30.55757 97.26004 9.51432 1.78831 -23.76407 7.43746 -1.08049 30.26534 -105.82457 16.35938 -2.07066 26.81297 -3.15885 -9.19937 -20.14612 -6.22695 -3.31237 -3.8134 31.9817 4.86852 3.45448 -24.34085 -6.31894 2.41655 3.39087
0.00203 0.00066 0.00152 52.14368 -20.75173 -8.23373 43.94352 -2.25781 -8.99611 -12.81048 6.44206 -1.23273 -23.45847 -6.39935 -3.07262 31.01841 97.24859 9.52711 1.78352 -23.79709 7.40108 -0.96332 30.2282 -105.72913 16.25382 -2.07167 26.82626 -3.22691 -9.62703 -20.1519 -6.21176 -3.29138 -3.79847 32.02479 4.77977 3.01243 -24.3443 -6.32959 2.45756 3.41191
0.00211 0.00068 0.00168 52.22074 -20.79423 -8.21538 43.97008 -2.29427 -9.10681 -12.93198 6.35742 -1.23434 -23.95392 -6.6138 -2.70679 32.32378 97.11803 9.46402 1.76942 -23.92257 7.34536 -0.81281 30.28323 -105.53232 16.02176 -2.07369 26.84068 -3.30082 -10.03382 -20.15622 -6.19833 -3.27039 -3.78481 32.07792 4.72051 2.74135 -24.3455 -6.33952 2.47412 3.42065
0.00223 0.00076 0.00172 52.39167 -20.88555 -8.1655 44.11184 -2.39889 -9.49567 -13.28085 6.13431 -1.23606 -25.26279 -7.11372 -2.30391 35.94317 96.62833 9.1665 1.72879 -24.29792 7.236 -0.56926 30.60007 -105.06286 15.43602 -2.07851 26.86228 -3.38842 -10.36426 -20.1554 -6.19068 -3.25052 -3.77535 32.1622 4.76132 3.03251 -24.34002 -6.34461 2.41395 3.39065
0.00236 0.00086 0.00173 52.59722 -20.99139 -8.10411 44.29251 -2.52938 -9.98777 -13.71329 5.86076 -1.23792 -26.85307 -7.72823 -1.88273 40.40391 96.02688 8.79858 1.67915 -24.76402 7.10788 -0.2931 31.0063 -104.49222 14.72741 -2.08421 26.88379 -3.48012 -10.66669 -20.15305 -6.18519 -3.23122 -3.76746 32.25508 4.83388 3.50319 -24.33232 -6.34885 2.32839 3.34786
0.00248 0.00095 0.00176 52.78791 -21.0902 -8.04791 44.45514 -2.65018 -10.43603 -14.10752 5.61034 -1.23969 -28.29574 -8.30195 -1.46741 44.47487 95.49845 8.47871 1.63462 -25.18887 6.98897 -0.0334 31.36599 -103.96382 14.08025 -2.0898 26.90577 -3.56745 -10.97263 -20.15164 -6.17919 -3.2126 -3.75935 32.34443 4.89003 3.88057 -24.3258 -6.35404 2.25553 3.3115
